<svg width="61" height="59" viewBox="0 0 61 59" fill="none" xmlns="http://www.w3.org/2000/svg">
<path d="M57.4272 1.43848H3.14941C1.7687 1.43848 0.649414 2.55776 0.649414 3.93848V55.1455C0.649414 56.5262 1.7687 57.6455 3.14941 57.6455H57.4272C58.8079 57.6455 59.9272 56.5262 59.9272 55.1455V3.93848C59.9272 2.55776 58.8079 1.43848 57.4272 1.43848Z" fill="#083F35" stroke="#107F6B"/>
<path d="M51.092 37.4633C50.2247 32.122 47.3029 31.4372 47.3029 31.4372L36.3313 26.9634L34.84 26.2329L30.1074 25.8525L25.2835 26.2481L23.7923 26.9786L12.8206 31.4525C12.8206 31.4525 9.91408 32.1372 9.03148 37.4785L8.35938 43.7785H15.8336H32.0382H44.3051H52.2177L51.092 37.4633Z" fill="#172059"/>
<path d="M42.0414 36.8934C42.0641 36.9897 42.0266 37.0902 41.9464 37.1482L40.8335 37.8793L40.1682 38.3C39.9472 38.4585 39.9391 38.4669 39.9309 38.6096C39.9309 38.6113 39.9285 38.6115 39.9281 38.6099C39.9279 38.6092 39.927 38.6083 39.9264 38.6087L39.8222 38.1649C39.797 38.0578 39.8274 37.9452 39.9032 37.8653L41.6434 36.0291C41.7105 35.9582 41.8294 35.9904 41.8517 36.0854L42.0414 36.8934Z" fill="#39FF14"/>
<path fill-rule="evenodd" clip-rule="evenodd" d="M42.7458 38.2689C42.8553 38.2243 42.9273 38.1182 42.9283 38L42.9367 37.008C42.9377 36.8913 42.8087 36.8203 42.7107 36.8836L40.1701 38.5231C40.1585 38.5307 40.1467 38.5379 40.1351 38.545C40.0366 38.6056 39.9472 38.6606 39.9912 38.8482L40.1184 39.3899C40.1634 39.5686 40.1851 39.6456 40.1939 39.6638L40.2621 39.9369C40.0202 39.8121 39.7457 39.7417 39.4548 39.7417C38.4809 39.7417 37.6914 40.5312 37.6914 41.5051C37.6914 42.479 38.4809 43.2685 39.4548 43.2685C40.4287 43.2685 41.2182 42.479 41.2182 41.5051C41.2182 41.3533 41.1991 41.206 41.163 41.0654L40.6922 38.9895L41.2465 38.8028L42.7458 38.2689ZM38.2885 41.5051C38.2885 42.1492 38.8107 42.6714 39.4548 42.6714C40.0989 42.6714 40.6211 42.1492 40.6211 41.5051C40.6211 40.861 40.0989 40.3388 39.4548 40.3388C38.8107 40.3388 38.2885 40.861 38.2885 41.5051Z" fill="#39FF14"/>
<path d="M39.4649 40.4351C39.4562 40.4351 39.4475 40.4351 39.4389 40.4353C39.407 40.4359 39.3751 40.4381 39.3435 40.4416C39.345 40.4424 39.346 40.4432 39.3457 40.4437L39.227 40.6304L39.5769 40.8644L39.5763 40.8653L39.9106 40.8666L40.0138 40.6504L39.8806 40.5212C39.8054 40.489 39.7269 40.4656 39.6464 40.4513C39.5865 40.4407 39.5257 40.4354 39.4649 40.4351ZM39.1614 40.6928L38.8127 40.8669L38.7474 41.3327L38.9904 41.492L39.437 41.2864L39.5074 40.9243L39.1614 40.6928ZM40.0907 40.6944L39.9902 40.9051L40.1641 41.2493L40.4579 41.4334L40.5114 41.3327C40.5125 41.3334 40.5136 41.3346 40.5145 41.3362C40.5109 41.3128 40.5064 41.2894 40.5012 41.2663C40.4707 41.131 40.4132 41.0014 40.3332 40.8878C40.2903 40.8268 40.2408 40.7705 40.186 40.7197L40.0907 40.6944ZM38.6582 40.8033C38.6255 40.8414 38.5954 40.8817 38.5685 40.924C38.4943 41.0407 38.4434 41.1725 38.4197 41.3089C38.4082 41.3754 38.4031 41.443 38.4045 41.5105L38.5003 41.5346L38.6567 41.3429L38.7252 40.8551L38.6582 40.8033ZM40.1384 41.3374L39.8742 41.5493L39.8578 42.0278L40.0453 42.1278L40.4107 41.893L40.4315 41.5203L40.1384 41.3374ZM39.4717 41.3678L39.0266 41.5728L39.0209 41.9355L39.4429 42.207L39.7692 42.0346L39.7854 41.553L39.4717 41.3678ZM38.4104 41.6032C38.4147 41.6432 38.4212 41.6828 38.4301 41.722C38.4606 41.8573 38.5182 41.9869 38.5983 42.1005C38.6166 42.1266 38.6362 42.1517 38.6568 42.176L38.6125 41.948L38.4851 41.622L38.4104 41.6032ZM38.9651 42.0048L38.7212 42.0434L38.7691 42.29C38.8097 42.3255 38.8529 42.3578 38.8984 42.3868C38.9677 42.4308 39.0419 42.4666 39.1194 42.4937L39.4158 42.4289L39.3952 42.2816L38.9651 42.0048ZM40.3966 42.0072L40.0927 42.2025L39.8939 42.4267L39.9147 42.4558C39.9716 42.4296 40.0263 42.3984 40.0776 42.3625C40.191 42.2832 40.2887 42.1812 40.3629 42.0644C40.3748 42.0458 40.386 42.0266 40.3966 42.0072ZM39.8155 42.4694L39.4371 42.515L39.3142 42.5418C39.4419 42.5607 39.5732 42.5562 39.6991 42.5285C39.7436 42.5186 39.7875 42.5058 39.8304 42.4903L39.8155 42.4694Z" fill="white"/>
<path d="M0.193359 43.7783H60.4733V55.1318C60.4733 56.7887 59.1302 58.1318 57.4733 58.1318H3.19336C1.5365 58.1318 0.193359 56.7887 0.193359 55.1318V43.7783Z" fill="white"/>
</svg>
