<svg width="391" height="282" viewBox="0 0 391 282" fill="none" xmlns="http://www.w3.org/2000/svg">
<path d="M195.688 24.4861H195.743L195.753 24.4893H195.822L195.85 24.4915H195.878L195.885 24.4947H195.929L195.952 24.4979H195.957L195.985 24.5H196.015L196.036 24.5032L196.061 24.5054H196.08L196.089 24.5086L196.113 24.5107L196.138 24.5139H196.143L196.165 24.5161L196.191 24.5193H196.203L196.215 24.5225L196.242 24.5246L196.267 24.5278L196.291 24.5299L196.316 24.5353H196.33L196.341 24.5385L196.415 24.5492L196.439 24.5545H196.451L196.465 24.5577L196.49 24.5631L196.508 24.5663H196.514L196.569 24.577L196.585 24.5823L196.627 24.5909H196.632L196.657 24.5962L196.678 24.6015L196.681 24.6037L196.725 24.6122L196.739 24.6176L196.771 24.6261L196.794 24.6315H196.796L196.815 24.6368L196.84 24.6421L196.849 24.6453L196.863 24.6475L196.884 24.656L196.903 24.6614H196.907L196.928 24.6699L196.95 24.6753L196.958 24.6774L196.972 24.6838L196.994 24.6891L197.01 24.6966H197.014L197.035 24.7052L197.057 24.7105L197.063 24.7137L197.076 24.7191L197.098 24.7276L197.112 24.733L197.118 24.7351L197.139 24.7404L197.158 24.749L197.162 24.7522L197.181 24.7575L197.2 24.765L197.211 24.7714L197.219 24.7736C197.828 25.0279 198.215 25.4328 198.217 25.9168C198.22 26.3987 197.834 26.8357 197.219 27.1092H197.216L197.2 27.1178L197.181 27.1263L197.167 27.1317L197.158 27.137L197.139 27.1456L197.118 27.153L197.098 27.1616L197.076 27.1701L197.065 27.1723L197.057 27.1776L197.035 27.1862L197.016 27.1915H197.014L196.994 27.2001L196.972 27.2075L196.963 27.2107L196.95 27.2161L196.928 27.2214L196.909 27.23H196.907L196.884 27.2353L196.863 27.2439L196.854 27.246L196.84 27.2492L196.819 27.2577L196.799 27.2631H196.794L196.771 27.2706L196.75 27.2759H196.745L196.725 27.2823L196.703 27.2877L196.687 27.293H196.681L196.657 27.2984L196.634 27.3069H196.629L196.61 27.3122L196.585 27.3144L196.571 27.3197H196.564L196.539 27.3261L196.49 27.3368L196.465 27.339L196.453 27.3422L196.442 27.3443L196.418 27.3507L196.393 27.3528L196.368 27.3582L196.344 27.3614L196.333 27.3635L196.316 27.3667L196.291 27.3699L196.27 27.3721H196.267L196.242 27.3774L196.217 27.3806H196.207L196.191 27.3828L196.165 27.386L196.147 27.3881H196.14L196.113 27.3913L196.089 27.3945H196.08L196.061 27.3967H196.036L196.017 27.3999H196.009L195.985 27.402H195.952L195.929 27.4052L195.904 27.4073H195.822L195.753 27.4105H195.623L195.556 27.4073H195.474L195.447 27.4052L195.424 27.402H195.394L195.367 27.3999H195.359L195.342 27.3967H195.315L195.296 27.3945H195.29L195.262 27.3913L195.238 27.3881H195.232L195.211 27.386L195.186 27.3828L195.169 27.3806H195.162L195.136 27.3774L195.109 27.3721H195.106L195.085 27.3699L195.06 27.3667L195.046 27.3635L195.035 27.3614L195.011 27.3582L194.986 27.3528L194.961 27.3507L194.937 27.3443L194.925 27.3422L194.912 27.339L194.887 27.3368L194.865 27.3315H194.863L194.839 27.3261L194.814 27.3197H194.806L194.791 27.3144L194.767 27.3122L194.748 27.3069H194.744L194.72 27.2984L194.697 27.293H194.69L194.674 27.2877L194.65 27.2823L194.633 27.2759H194.628L194.604 27.2706L194.582 27.2631H194.578L194.559 27.2577L194.537 27.2492L194.522 27.246L194.514 27.2439L194.493 27.2353L194.47 27.23H194.467L194.449 27.2214L194.428 27.2161L194.415 27.2107L194.406 27.2075L194.385 27.2001L194.363 27.1915H194.362L194.342 27.1862L194.32 27.1776L194.31 27.1723L194.3 27.1701L194.279 27.1616L194.259 27.153H194.258L194.238 27.1456L194.217 27.137L194.209 27.1317L194.197 27.1263L194.178 27.1178L194.161 27.1092H194.157C193.544 26.8357 193.156 26.3987 193.159 25.9168C193.163 25.4328 193.548 25.0279 194.157 24.7736L194.165 24.7714L194.178 24.765L194.198 24.7575L194.214 24.7522L194.217 24.749L194.238 24.7404L194.258 24.7351L194.265 24.733L194.279 24.7276L194.3 24.7191L194.315 24.7137L194.321 24.7105L194.342 24.7052L194.363 24.6966H194.366L194.385 24.6891L194.406 24.6838L194.42 24.6774L194.428 24.6753L194.449 24.6699L194.47 24.6614H194.473L194.493 24.656L194.515 24.6475L194.527 24.6453L194.537 24.6421L194.56 24.6368L194.582 24.6315H194.583L194.605 24.6261L194.638 24.6176L194.652 24.6122L194.694 24.6037L194.698 24.6015L194.721 24.5962L194.744 24.5909H194.751L194.792 24.5823L194.809 24.577L194.864 24.5663H194.869L194.887 24.5631L194.912 24.5577L194.928 24.5545H194.937L194.961 24.5492L195.035 24.5385L195.049 24.5353H195.06L195.085 24.5299L195.109 24.5278L195.136 24.5246L195.162 24.5225L195.172 24.5193H195.186L195.211 24.5161L195.236 24.5139H195.238L195.262 24.5107L195.29 24.5086L195.299 24.5054H195.315L195.342 24.5032L195.361 24.5H195.394L195.419 24.4979H195.428L195.447 24.4947H195.491L195.501 24.4915H195.526L195.554 24.4893H195.623L195.633 24.4861H195.688ZM195.688 225.97C195.806 225.973 195.924 225.978 196.039 225.989H196.047C196.096 225.994 196.149 226.001 196.198 226.006L196.209 226.008H196.223C196.302 226.02 196.382 226.033 196.462 226.05H196.467L196.539 226.062L196.544 226.066L196.61 226.08L196.624 226.085H196.634L196.681 226.099L196.703 226.104H196.706L196.75 226.115L196.775 226.123L196.785 226.126L196.796 226.129C196.843 226.143 196.887 226.157 196.933 226.169L196.939 226.173L196.956 226.178L197.002 226.192L197.016 226.197L197.024 226.199L197.046 226.208L197.068 226.216L197.09 226.225H197.093L197.112 226.232L197.134 226.241L197.156 226.249L197.167 226.255L197.176 226.257L197.197 226.265L197.219 226.276C198.322 226.733 199.06 227.655 199.065 228.727C199.068 229.802 198.33 230.71 197.219 231.159L197.172 231.175L197.156 231.184L197.112 231.2L197.098 231.203L197.09 231.208L197.068 231.217L197.046 231.222L197.024 231.23L197.002 231.238L196.977 231.247L196.947 231.254L196.933 231.26L196.912 231.266L196.887 231.273L196.868 231.279H196.865L196.796 231.301H196.791L196.775 231.307L196.711 231.323L196.703 231.326L196.634 231.342H196.629L196.61 231.347C196.564 231.356 196.516 231.366 196.467 231.375C196.393 231.389 196.321 231.403 196.247 231.41L196.223 231.416H196.215L196.198 231.419L196.042 231.435H196.022C195.985 231.44 195.946 231.443 195.908 231.446C195.904 231.446 195.901 231.446 195.897 231.447H195.866L195.844 231.449L195.792 231.452H195.584L195.535 231.449L195.51 231.447H195.482C195.438 231.443 195.397 231.44 195.356 231.435H195.334L195.178 231.419L195.164 231.416H195.155L195.128 231.41C195.057 231.403 194.983 231.389 194.912 231.375H194.909C194.862 231.366 194.813 231.356 194.766 231.347L194.747 231.342H194.743L194.673 231.326L194.667 231.323L194.603 231.307L194.586 231.301H194.58L194.511 231.279H194.508L194.489 231.273L194.465 231.266L194.444 231.26L194.431 231.254L194.421 231.252L194.399 231.247L194.354 231.23L194.332 231.222L194.31 231.217L194.287 231.208L194.278 231.203L194.266 231.2L194.223 231.184L194.204 231.175L194.157 231.159C193.046 230.71 192.308 229.802 192.313 228.727C192.317 227.655 193.054 226.733 194.157 226.276L194.179 226.265L194.201 226.257L194.211 226.255L194.223 226.249L194.266 226.232L194.285 226.225H194.288L194.31 226.216L194.332 226.208L194.354 226.199L194.376 226.192L194.421 226.178L194.437 226.173L194.444 226.169C194.488 226.157 194.533 226.143 194.578 226.13L194.581 226.129L194.593 226.126L194.603 226.123L194.627 226.115L194.672 226.104H194.673L194.695 226.099L194.743 226.085H194.752L194.767 226.08L194.834 226.066L194.838 226.062L194.909 226.05H194.914C194.993 226.033 195.074 226.02 195.155 226.008H195.167L195.18 226.006C195.23 226.001 195.28 225.994 195.329 225.989H195.336C195.452 225.978 195.57 225.973 195.688 225.97ZM195.688 216.527H194.157C182.722 216.522 171.281 216.515 159.841 216.498C163.718 212.712 168.55 209.586 173.995 207.294C180.071 204.72 186.897 203.191 194.157 202.996L194.181 202.993H194.278L194.301 202.991H194.372L194.396 202.988H194.492L194.515 202.986H194.634L194.659 202.982H194.802L194.85 202.98H194.969L194.993 202.977H195.018L195.304 202.975H196.072L196.36 202.977H196.385L196.407 202.98H196.527L196.574 202.982H196.72L196.741 202.986H196.863L196.884 202.988H196.98L197.005 202.991H197.076L197.101 202.993H197.194L197.219 202.996C204.478 203.191 211.306 204.72 217.382 207.294C222.826 209.586 227.657 212.712 231.537 216.498C220.096 216.515 208.655 216.522 197.219 216.527H195.688ZM195.688 254.611H194.157C178.569 254.606 162.974 254.597 147.37 254.581L146.035 276.628L131.003 276.622H129.249L83.6422 276.6C86.3291 256.901 88.8841 238.194 91.3224 220.318C111.063 220.318 130.805 220.332 150.523 220.341L150.512 220.355H240.866L240.855 220.341C260.571 220.332 280.315 220.318 300.056 220.318C302.492 238.194 305.049 256.901 307.735 276.6L262.129 276.622H260.374L245.344 276.628L244.007 254.581C228.403 254.597 212.808 254.606 197.219 254.611H195.688ZM195.688 276.644H194.157C179.923 276.638 165.682 276.63 151.43 276.614C151.758 270.566 152.074 264.718 152.391 258.835C166.322 258.851 180.243 258.859 194.157 258.865H197.219C211.135 258.859 225.054 258.851 238.986 258.835C239.302 264.718 239.62 270.566 239.946 276.614C225.696 276.63 211.453 276.638 197.219 276.644H195.688ZM195.688 0.459473H194.799C180.384 0.464815 165.958 0.476568 151.527 0.487253H150.958C139.904 0.48939 128.842 0.495801 117.774 0.495801L117.772 0.508622C100.858 0.520375 83.9369 0.527855 67.016 0.527855C63.207 16.6446 59.1611 33.691 54.8634 51.8037C50.4949 70.207 45.8799 89.7664 40.9466 110.656H40.9455C35.4292 134.018 29.5034 159.109 23.1394 186.027C16.264 215.103 8.79925 246.706 0.691406 281.001C1.61848 281.001 2.49946 281.001 3.38044 281.001C28.1198 281.001 52.8656 281.006 77.6135 281.015L77.6103 281.034C78.5374 281.034 79.4645 281.034 80.3455 281.034C118.282 281.034 156.262 281.05 194.157 281.067H197.219C235.115 281.05 273.093 281.034 311.03 281.034C311.911 281.034 312.838 281.034 313.766 281.034L313.763 281.015C338.511 281.006 363.256 281.001 387.996 281.001C388.877 281.001 389.758 281.001 390.686 281.001C382.578 246.706 375.115 215.103 368.239 186.027C361.874 159.109 355.948 134.018 350.433 110.656H350.429C345.497 89.7664 340.882 70.207 336.514 51.8037C332.215 33.691 328.17 16.6446 324.362 0.527855C307.439 0.527855 290.518 0.520375 273.604 0.508622V0.495801C262.536 0.495801 251.473 0.48939 240.419 0.487253H239.851C225.418 0.476568 210.993 0.464815 196.576 0.459473H195.688ZM195.688 10.58H194.157C194.153 10.58 194.149 10.58 194.145 10.58C184.686 10.5886 175.232 10.5971 165.776 10.5971C165.926 7.87251 166.075 5.14578 166.223 2.45324C175.534 2.44041 184.844 2.43187 194.157 2.42652H197.219C206.531 2.43187 215.843 2.44041 225.153 2.45324C225.301 5.14578 225.448 7.87251 225.6 10.5971C216.145 10.5971 206.693 10.5886 197.236 10.58C197.23 10.58 197.225 10.58 197.219 10.58H195.688ZM195.688 30.5892H195.079L194.773 30.5914H194.157C188.158 30.5999 182.159 30.6053 176.163 30.6138L175.555 30.6159C156.148 30.6266 136.687 30.6437 117.226 30.6683L121.086 2.45965L162.631 2.44255L162.007 12.624C171.653 12.6086 181.299 12.601 190.947 12.5934C192.017 12.5926 193.087 12.5917 194.157 12.5909H197.219C198.289 12.5917 199.359 12.5926 200.428 12.5934C210.076 12.601 219.722 12.6086 229.37 12.624L228.746 2.44255L270.292 2.45965L274.152 30.6683C254.691 30.6437 235.23 30.6266 215.821 30.6159L215.215 30.6138C209.217 30.6053 203.219 30.5999 197.219 30.5914H196.604L196.3 30.5892H195.688ZM195.688 40.8027H195.158L195.134 40.7995H194.919L194.895 40.7974H194.705L194.657 40.7942H194.633L194.49 40.791H194.443L194.419 40.7888H194.3L194.276 40.7856H194.181L194.157 40.7835C188.589 40.6467 183.392 39.7385 178.836 38.2117C174.732 36.8494 171.189 34.9539 168.494 32.7967C172.185 32.7882 175.877 32.7828 179.569 32.7775C179.572 32.7775 179.575 32.7775 179.577 32.7775H180.562C185.098 32.7721 189.629 32.7689 194.157 32.7636H194.933L195.688 32.7604L196.442 32.7636H197.219C201.749 32.7689 206.279 32.7721 210.814 32.7775H211.799C211.801 32.7775 211.804 32.7775 211.806 32.7775C215.5 32.7828 219.193 32.7882 222.884 32.7967C220.189 34.9539 216.644 36.8494 212.542 38.2117C207.985 39.7385 202.788 40.6467 197.219 40.7835L197.194 40.7856H197.101L197.076 40.7888H196.958L196.933 40.791H196.887L196.745 40.7942H196.72L196.673 40.7974H196.481L196.459 40.7995H196.242L196.221 40.8027H195.688ZM195.688 77.2311C194.855 77.2066 194.018 77.1927 193.176 77.1927C178.724 77.1927 165.419 80.9152 155.486 86.9627C145.692 92.8543 139.036 101.156 137.784 110.615C106.953 110.626 76.1077 110.634 45.2497 110.653C50.0823 89.7856 54.5868 70.1792 58.8192 51.7706C62.8147 34.3909 66.5777 18.0069 70.1466 2.48956C85.9261 2.47567 101.71 2.46713 117.493 2.46178C116.09 12.2511 114.636 22.3642 113.106 32.8287C130.048 32.8074 146.979 32.7988 163.874 32.7881C167.053 35.813 171.522 38.3485 176.909 40.1403C182.002 41.8605 187.896 42.8702 194.157 43.0123H194.206L194.229 43.0155H194.325L194.347 43.0177H194.491L194.514 43.0209H194.633L194.657 43.023H194.823L194.848 43.0262H195.087L195.109 43.0294H196.267L196.291 43.0262H196.53L196.552 43.023H196.72L196.745 43.0209H196.863L196.887 43.0177H197.03L197.051 43.0155H197.148L197.172 43.0123H197.219C203.48 42.8702 209.376 41.8605 214.468 40.1403C219.855 38.3485 224.324 35.813 227.504 32.7881C244.399 32.7988 261.328 32.8074 278.27 32.8287C276.743 22.3642 275.288 12.2511 273.883 2.46178C289.665 2.46713 305.452 2.47567 321.231 2.48956C324.801 18.0069 328.562 34.3909 332.558 51.7706C332.996 53.6747 333.436 55.5916 333.88 57.5215C337.727 74.2487 341.796 91.9441 346.127 110.653C315.269 110.634 284.425 110.626 253.594 110.615C252.342 101.156 245.683 92.8543 235.892 86.9627C225.956 80.9152 212.653 77.1927 198.201 77.1927C197.359 77.1927 196.522 77.2066 195.688 77.2311ZM195.688 108.727C193.702 108.731 191.99 109.488 191.179 110.591C175.16 110.604 159.082 110.593 143 110.615H142.102C143.215 101.912 149.322 94.2721 158.284 88.8229C167.461 83.175 179.777 79.7826 193.166 79.7826C193.497 79.7826 193.828 79.7858 194.157 79.788C194.67 79.7933 195.18 79.8051 195.688 79.819C196.196 79.8051 196.706 79.7933 197.219 79.788C197.549 79.7858 197.88 79.7826 198.212 79.7826C211.601 79.7826 223.915 83.175 233.093 88.8229C242.056 94.2721 248.161 101.912 249.275 110.615H248.378C232.295 110.593 216.22 110.604 200.199 110.591C199.387 109.488 197.674 108.731 195.688 108.727ZM195.688 147.76C195.18 147.777 194.671 147.791 194.157 147.798C193.744 147.807 193.329 147.809 192.912 147.809C178.062 147.809 164.758 143.622 155.447 137.043C146.681 130.799 141.556 122.464 141.869 113.465L168.366 113.457L172.877 113.454H181.669C184.831 113.454 187.991 113.454 191.149 113.451C191.944 114.568 193.662 115.341 195.677 115.341H195.702C197.716 115.341 199.433 114.568 200.229 113.451C203.386 113.454 206.545 113.454 209.709 113.454H218.499L223.012 113.457L249.508 113.465C249.821 122.464 244.696 130.799 235.93 137.043C226.618 143.622 213.316 147.809 198.465 147.809C198.048 147.809 197.633 147.807 197.219 147.798C196.706 147.791 196.196 147.777 195.688 147.76ZM195.688 199.351H195.449L195.4 199.353H195.115L195.041 199.356H194.85L194.826 199.358H194.683L194.659 199.361H194.515L194.492 199.364H194.373L194.348 199.367H194.253L194.229 199.369H194.157C186.087 199.561 178.428 201.202 171.69 204.104C164.587 207.083 158.42 211.304 153.77 216.515C131.481 216.506 109.162 216.498 86.8435 216.498L78.2448 276.597C75.611 276.596 72.9773 276.595 70.3435 276.594C49.2732 276.588 28.2029 276.581 7.13267 276.581C14.6275 243.949 21.5489 213.839 27.9387 186.027C33.8784 160.173 39.414 136.078 44.5938 113.514C75.589 113.495 106.569 113.479 137.535 113.468C137.117 123.279 142.61 132.382 152.171 139.201C162.267 146.415 176.732 150.966 192.901 150.966C193.361 150.966 193.821 150.963 194.278 150.954H194.301L194.422 150.952H194.43L194.517 150.949H194.613L194.638 150.947H194.758L194.778 150.944H194.878L194.9 150.942H194.925L194.993 150.938H195.093L195.115 150.936H195.211L195.236 150.933H195.299L195.306 150.93H195.386L195.403 150.928H195.498L195.515 150.925H195.591L195.603 150.922H195.663L195.688 150.919L195.713 150.922H195.776L195.784 150.925H195.86L195.88 150.928H195.973L195.992 150.93H196.069L196.078 150.933H196.14L196.165 150.936H196.261L196.286 150.938H196.382L196.453 150.942H196.476L196.5 150.944H196.599L196.62 150.947H196.739L196.764 150.949H196.859L196.947 150.952H196.956L197.076 150.954H197.098C197.556 150.963 198.015 150.966 198.476 150.966C214.644 150.966 229.109 146.415 239.206 139.201C248.768 132.382 254.261 123.279 253.84 113.468C284.809 113.479 315.788 113.495 346.783 113.514C351.964 136.078 357.498 160.173 363.437 186.027C369.828 213.839 376.751 243.949 384.243 276.581C363.173 276.581 342.1 276.588 321.029 276.594C318.397 276.595 315.765 276.596 313.132 276.597L304.533 216.498C282.216 216.498 259.896 216.506 237.606 216.515C232.958 211.304 226.79 207.083 219.687 204.104C212.949 201.202 205.288 199.561 197.219 199.369H197.148L197.123 199.367H197.03L197.005 199.364H196.884L196.863 199.361H196.717L196.695 199.358H196.55L196.527 199.356H196.335L196.265 199.353H195.976L195.929 199.351H195.688Z" fill="#C4E386"/>
<path d="M195.688 199.351H195.449L195.4 199.353H195.115L195.041 199.356H194.85L194.826 199.358H194.683L194.659 199.361H194.515L194.492 199.364H194.373L194.348 199.367H194.253L194.229 199.369H194.157C186.087 199.561 178.428 201.202 171.69 204.104C164.587 207.083 158.42 211.304 153.77 216.515C131.481 216.506 109.162 216.498 86.8435 216.498L78.2448 276.597L70.3435 276.594C49.2732 276.588 28.2029 276.581 7.13267 276.581C14.6275 243.949 21.5489 213.839 27.9387 186.027C33.8784 160.173 39.414 136.078 44.5938 113.514C75.589 113.495 106.569 113.479 137.535 113.468C137.117 123.279 142.61 132.382 152.171 139.201C162.267 146.415 176.732 150.966 192.901 150.966C193.361 150.966 193.821 150.963 194.278 150.954H194.301L194.422 150.952H194.43L194.517 150.949H194.613L194.638 150.947H194.758L194.778 150.944H194.878L194.9 150.942H194.925L194.993 150.938H195.093L195.115 150.936H195.211L195.236 150.933H195.299L195.306 150.93H195.386L195.403 150.928H195.498L195.515 150.925H195.591L195.603 150.922H195.663L195.688 150.919L195.713 150.922H195.776L195.784 150.925H195.86L195.88 150.928H195.973L195.992 150.93H196.069L196.078 150.933H196.14L196.165 150.936H196.261L196.286 150.938H196.382L196.453 150.942H196.476L196.5 150.944H196.599L196.62 150.947H196.739L196.764 150.949H196.859L196.947 150.952H196.956L197.076 150.954H197.098C197.556 150.963 198.015 150.966 198.476 150.966C214.644 150.966 229.109 146.415 239.206 139.201C248.768 132.382 254.261 123.279 253.84 113.468C284.809 113.479 315.788 113.495 346.783 113.514C351.964 136.078 357.498 160.173 363.437 186.027C369.828 213.839 376.751 243.949 384.243 276.581C363.173 276.581 342.1 276.588 321.029 276.594L313.132 276.597L304.533 216.498C282.216 216.498 259.896 216.506 237.606 216.515C232.958 211.304 226.79 207.083 219.687 204.104C212.949 201.202 205.288 199.561 197.219 199.369H197.148L197.123 199.367H197.03L197.005 199.364H196.884L196.863 199.361H196.717L196.695 199.358H196.55L196.527 199.356H196.335L196.265 199.353H195.976L195.929 199.351H195.688Z" fill="#3A7907"/>
<path fill-rule="evenodd" clip-rule="evenodd" d="M195.688 254.611H194.157C178.569 254.606 162.974 254.597 147.37 254.581L146.035 276.628L131.003 276.622H129.249L83.6422 276.6C86.3291 256.901 88.8841 238.194 91.3224 220.318C111.063 220.318 130.805 220.332 150.523 220.341L150.512 220.355H240.866L240.855 220.341C260.571 220.332 280.315 220.318 300.056 220.318C302.492 238.194 305.049 256.901 307.735 276.6L262.129 276.622H260.374L245.344 276.628L244.007 254.581C228.403 254.597 212.808 254.606 197.219 254.611H195.688ZM196.039 225.989C195.924 225.978 195.806 225.973 195.688 225.97C195.57 225.973 195.452 225.978 195.336 225.989H195.329C195.28 225.994 195.23 226.001 195.18 226.006L195.167 226.008H195.155C195.074 226.02 194.993 226.033 194.914 226.05H194.909L194.838 226.062L194.834 226.066L194.767 226.08L194.752 226.085H194.743L194.695 226.099L194.673 226.104H194.672L194.627 226.115L194.603 226.123L194.593 226.126L194.581 226.129L194.578 226.13C194.533 226.143 194.488 226.157 194.444 226.169L194.437 226.173L194.421 226.178L194.376 226.192L194.354 226.199L194.332 226.208L194.31 226.216L194.288 226.225H194.285L194.266 226.232L194.223 226.249L194.211 226.255L194.201 226.257L194.179 226.265L194.157 226.276C193.054 226.733 192.317 227.655 192.313 228.727C192.308 229.802 193.046 230.71 194.157 231.159L194.204 231.175L194.223 231.184L194.266 231.2L194.278 231.203L194.287 231.208L194.31 231.217L194.332 231.222L194.354 231.23L194.399 231.247L194.421 231.252L194.431 231.254L194.444 231.26L194.465 231.266L194.489 231.273L194.508 231.279H194.511L194.58 231.301H194.586L194.603 231.307L194.667 231.323L194.673 231.326L194.743 231.342H194.747L194.766 231.347C194.813 231.356 194.862 231.366 194.909 231.375H194.912C194.983 231.389 195.057 231.403 195.128 231.41L195.155 231.416H195.164L195.178 231.419L195.334 231.435H195.356C195.397 231.44 195.438 231.443 195.482 231.447H195.51L195.535 231.449L195.584 231.452H195.792L195.844 231.449L195.866 231.447H195.897L195.908 231.446C195.946 231.443 195.985 231.44 196.022 231.435H196.042L196.198 231.419L196.215 231.416H196.223L196.247 231.41C196.321 231.403 196.393 231.389 196.467 231.375C196.516 231.366 196.564 231.356 196.61 231.347L196.629 231.342H196.634L196.703 231.326L196.711 231.323L196.775 231.307L196.791 231.301H196.796L196.865 231.279H196.868L196.887 231.273L196.912 231.266L196.933 231.26L196.947 231.254L196.977 231.247L197.002 231.238L197.024 231.23L197.046 231.222L197.068 231.217L197.09 231.208L197.098 231.203L197.112 231.2L197.156 231.184L197.172 231.175L197.219 231.159C198.33 230.71 199.068 229.802 199.065 228.727C199.06 227.655 198.322 226.733 197.219 226.276L197.197 226.265L197.176 226.257L197.167 226.255L197.156 226.249L197.134 226.241L197.112 226.232L197.093 226.225H197.09L197.068 226.216L197.046 226.208L197.024 226.199L197.016 226.197L197.002 226.192L196.956 226.178L196.939 226.173L196.933 226.169C196.887 226.157 196.843 226.143 196.796 226.129L196.785 226.126L196.775 226.123L196.75 226.115L196.706 226.104H196.703L196.681 226.099L196.634 226.085H196.624L196.61 226.08L196.544 226.066L196.539 226.062L196.467 226.05H196.462C196.382 226.033 196.302 226.02 196.223 226.008H196.209L196.198 226.006C196.149 226.001 196.096 225.994 196.047 225.989H196.039Z" fill="#3A7907"/>
<path d="M195.688 276.644H194.157C179.923 276.638 165.682 276.63 151.43 276.614C151.758 270.566 152.074 264.718 152.391 258.835C166.322 258.851 180.243 258.859 194.157 258.865H197.219C211.135 258.859 225.054 258.851 238.986 258.835C239.302 264.718 239.62 270.566 239.946 276.614C225.696 276.63 211.453 276.638 197.219 276.644H195.688Z" fill="#3A7907"/>
<path d="M195.688 216.527H194.157C182.722 216.522 171.281 216.515 159.841 216.498C163.718 212.712 168.55 209.586 173.995 207.294C180.071 204.72 186.897 203.191 194.157 202.996L194.181 202.993H194.278L194.301 202.991H194.372L194.396 202.988H194.492L194.515 202.986H194.634L194.659 202.982H194.802L194.85 202.98H194.969L194.993 202.977H195.018L195.304 202.975H196.072L196.36 202.977H196.385L196.407 202.98H196.527L196.574 202.982H196.72L196.741 202.986H196.863L196.884 202.988H196.98L197.005 202.991H197.076L197.101 202.993H197.194L197.219 202.996C204.478 203.191 211.306 204.72 217.382 207.294C222.826 209.586 227.657 212.712 231.537 216.498C220.096 216.515 208.655 216.522 197.219 216.527H195.688Z" fill="#3A7907"/>
<path d="M195.688 147.76C195.18 147.777 194.671 147.791 194.157 147.798C193.744 147.807 193.329 147.809 192.912 147.809C178.062 147.809 164.758 143.622 155.447 137.043C146.681 130.799 141.556 122.464 141.869 113.465L168.366 113.457L172.877 113.454H181.669C184.831 113.454 187.991 113.454 191.149 113.451C191.944 114.568 193.662 115.341 195.677 115.341H195.702C197.716 115.341 199.433 114.568 200.229 113.451C203.386 113.454 206.545 113.454 209.709 113.454H218.499L223.012 113.457L249.508 113.465C249.821 122.464 244.696 130.799 235.93 137.043C226.618 143.622 213.316 147.809 198.465 147.809C198.048 147.809 197.633 147.807 197.219 147.798C196.706 147.791 196.196 147.777 195.688 147.76Z" fill="#3A7907"/>
<path d="M195.688 108.727C193.702 108.731 191.99 109.488 191.179 110.591C175.16 110.604 159.082 110.593 143 110.615H142.102C143.215 101.912 149.322 94.2721 158.284 88.8229C167.461 83.175 179.777 79.7826 193.166 79.7826C193.497 79.7826 193.828 79.7858 194.157 79.788C194.67 79.7933 195.18 79.8051 195.688 79.819C196.196 79.8051 196.706 79.7933 197.219 79.788C197.549 79.7858 197.88 79.7826 198.212 79.7826C211.601 79.7826 223.915 83.175 233.093 88.8229C242.056 94.2721 248.161 101.912 249.275 110.615H248.378C232.295 110.593 216.22 110.604 200.199 110.591C199.387 109.488 197.674 108.731 195.688 108.727Z" fill="#3A7907"/>
<path d="M195.688 77.2311C194.855 77.2066 194.018 77.1927 193.176 77.1927C178.724 77.1927 165.419 80.9152 155.486 86.9627C145.692 92.8543 139.036 101.156 137.784 110.615C106.953 110.626 76.1077 110.634 45.2497 110.653C50.0823 89.7856 54.5868 70.1792 58.8192 51.7706C62.8147 34.3909 66.5777 18.0069 70.1466 2.48956C85.9261 2.47567 101.71 2.46713 117.493 2.46178C116.09 12.2511 114.636 22.3642 113.106 32.8287C130.048 32.8074 146.979 32.7988 163.874 32.7881C167.053 35.813 171.522 38.3485 176.909 40.1403C182.002 41.8605 187.896 42.8702 194.157 43.0123H194.206L194.229 43.0155H194.325L194.347 43.0177H194.491L194.514 43.0209H194.633L194.657 43.023H194.823L194.848 43.0262H195.087L195.109 43.0294H196.267L196.291 43.0262H196.53L196.552 43.023H196.72L196.745 43.0209H196.863L196.887 43.0177H197.03L197.051 43.0155H197.148L197.172 43.0123H197.219C203.48 42.8702 209.376 41.8605 214.468 40.1403C219.855 38.3485 224.324 35.813 227.504 32.7881C244.399 32.7988 261.328 32.8074 278.27 32.8287C276.743 22.3642 275.288 12.2511 273.883 2.46178C289.665 2.46713 305.452 2.47567 321.231 2.48956C324.801 18.0069 328.562 34.3909 332.558 51.7706L333.88 57.5215C337.727 74.2487 341.796 91.9441 346.127 110.653C315.269 110.634 284.425 110.626 253.594 110.615C252.342 101.156 245.683 92.8543 235.892 86.9627C225.956 80.9152 212.653 77.1927 198.201 77.1927C197.359 77.1927 196.522 77.2066 195.688 77.2311Z" fill="#3A7907"/>
<path fill-rule="evenodd" clip-rule="evenodd" d="M195.079 30.5892H195.688H196.3L196.604 30.5914H197.219C203.219 30.5999 209.217 30.6053 215.215 30.6138L215.821 30.6159C235.23 30.6266 254.691 30.6437 274.152 30.6683L270.292 2.45965L228.746 2.44255L229.37 12.624C219.722 12.6086 210.076 12.601 200.428 12.5934L197.219 12.5909H194.157L190.947 12.5934C181.299 12.601 171.653 12.6086 162.007 12.624L162.631 2.44255L121.086 2.45965L117.226 30.6683C136.687 30.6437 156.148 30.6266 175.555 30.6159L176.163 30.6138C182.159 30.6053 188.158 30.5999 194.157 30.5914H194.773L195.079 30.5892ZM195.743 24.4861H195.688H195.633L195.623 24.4893H195.554L195.526 24.4915H195.501L195.491 24.4947H195.447L195.428 24.4979H195.419L195.394 24.5H195.361L195.342 24.5032L195.315 24.5054H195.299L195.29 24.5086L195.262 24.5107L195.238 24.5139H195.236L195.211 24.5161L195.186 24.5193H195.172L195.162 24.5225L195.136 24.5246L195.109 24.5278L195.085 24.5299L195.06 24.5353H195.049L195.035 24.5385L194.961 24.5492L194.937 24.5545H194.928L194.912 24.5577L194.887 24.5631L194.869 24.5663H194.864L194.809 24.577L194.792 24.5823L194.751 24.5909H194.744L194.721 24.5962L194.698 24.6015L194.694 24.6037L194.652 24.6122L194.638 24.6176L194.605 24.6261L194.583 24.6315H194.582L194.56 24.6368L194.537 24.6421L194.527 24.6453L194.515 24.6475L194.493 24.656L194.473 24.6614H194.47L194.449 24.6699L194.428 24.6753L194.42 24.6774L194.406 24.6838L194.385 24.6891L194.366 24.6966H194.363L194.342 24.7052L194.321 24.7105L194.315 24.7137L194.3 24.7191L194.279 24.7276L194.265 24.733L194.258 24.7351L194.238 24.7404L194.217 24.749L194.214 24.7522L194.198 24.7575L194.178 24.765L194.165 24.7714L194.157 24.7736C193.548 25.0279 193.163 25.4328 193.159 25.9168C193.156 26.3987 193.544 26.8357 194.157 27.1092H194.161L194.178 27.1178L194.197 27.1263L194.209 27.1317L194.217 27.137L194.238 27.1456L194.258 27.153H194.259L194.279 27.1616L194.3 27.1701L194.31 27.1723L194.32 27.1776L194.342 27.1862L194.362 27.1915H194.363L194.385 27.2001L194.406 27.2075L194.415 27.2107L194.428 27.2161L194.449 27.2214L194.467 27.23H194.47L194.493 27.2353L194.514 27.2439L194.522 27.246L194.537 27.2492L194.559 27.2577L194.578 27.2631H194.582L194.604 27.2706L194.628 27.2759H194.633L194.65 27.2823L194.674 27.2877L194.69 27.293H194.697L194.72 27.2984L194.744 27.3069H194.748L194.767 27.3122L194.791 27.3144L194.806 27.3197H194.814L194.839 27.3261L194.863 27.3315H194.865L194.887 27.3368L194.912 27.339L194.925 27.3422L194.937 27.3443L194.961 27.3507L194.986 27.3528L195.011 27.3582L195.035 27.3614L195.046 27.3635L195.06 27.3667L195.085 27.3699L195.106 27.3721H195.109L195.136 27.3774L195.162 27.3806H195.169L195.186 27.3828L195.211 27.386L195.232 27.3881H195.238L195.262 27.3913L195.29 27.3945H195.296L195.315 27.3967H195.342L195.359 27.3999H195.367L195.394 27.402H195.424L195.447 27.4052L195.474 27.4073H195.556L195.623 27.4105H195.753L195.822 27.4073H195.904L195.929 27.4052L195.952 27.402H195.985L196.009 27.3999H196.017L196.036 27.3967H196.061L196.08 27.3945H196.089L196.113 27.3913L196.14 27.3881H196.147L196.165 27.386L196.191 27.3828L196.207 27.3806H196.217L196.242 27.3774L196.267 27.3721H196.27L196.291 27.3699L196.316 27.3667L196.333 27.3635L196.344 27.3614L196.368 27.3582L196.393 27.3528L196.418 27.3507L196.442 27.3443L196.453 27.3422L196.465 27.339L196.49 27.3368L196.539 27.3261L196.564 27.3197H196.571L196.585 27.3144L196.61 27.3122L196.629 27.3069H196.634L196.657 27.2984L196.681 27.293H196.687L196.703 27.2877L196.725 27.2823L196.745 27.2759H196.75L196.771 27.2706L196.794 27.2631H196.799L196.819 27.2577L196.84 27.2492L196.854 27.246L196.863 27.2439L196.884 27.2353L196.907 27.23H196.909L196.928 27.2214L196.95 27.2161L196.963 27.2107L196.972 27.2075L196.994 27.2001L197.014 27.1915H197.016L197.035 27.1862L197.057 27.1776L197.065 27.1723L197.076 27.1701L197.098 27.1616L197.118 27.153L197.139 27.1456L197.158 27.137L197.167 27.1317L197.181 27.1263L197.2 27.1178L197.216 27.1092H197.219C197.834 26.8357 198.22 26.3987 198.217 25.9168C198.215 25.4328 197.828 25.0279 197.219 24.7736L197.211 24.7714L197.2 24.765L197.181 24.7575L197.162 24.7522L197.158 24.749L197.139 24.7404L197.118 24.7351L197.112 24.733L197.098 24.7276L197.076 24.7191L197.063 24.7137L197.057 24.7105L197.035 24.7052L197.014 24.6966H197.01L196.994 24.6891L196.972 24.6838L196.958 24.6774L196.95 24.6753L196.928 24.6699L196.907 24.6614H196.903L196.884 24.656L196.863 24.6475L196.849 24.6453L196.84 24.6421L196.815 24.6368L196.796 24.6315H196.794L196.771 24.6261L196.739 24.6176L196.725 24.6122L196.681 24.6037L196.678 24.6015L196.657 24.5962L196.632 24.5909H196.627L196.585 24.5823L196.569 24.577L196.514 24.5663H196.508L196.49 24.5631L196.465 24.5577L196.451 24.5545H196.439L196.415 24.5492L196.341 24.5385L196.33 24.5353H196.316L196.291 24.5299L196.267 24.5278L196.242 24.5246L196.215 24.5225L196.203 24.5193H196.191L196.165 24.5161L196.143 24.5139H196.138L196.113 24.5107L196.089 24.5086L196.08 24.5054H196.061L196.036 24.5032L196.015 24.5H195.985L195.957 24.4979H195.952L195.929 24.4947H195.885L195.878 24.4915H195.85L195.822 24.4893H195.753L195.743 24.4861Z" fill="#3A7907"/>
<path d="M195.158 40.8027H195.688H196.221L196.242 40.7995H196.459L196.481 40.7974H196.673L196.72 40.7942H196.745L196.887 40.791H196.933L196.958 40.7888H197.076L197.101 40.7856H197.194L197.219 40.7835C202.788 40.6467 207.985 39.7385 212.542 38.2117C216.644 36.8494 220.189 34.9539 222.884 32.7967C219.193 32.7882 215.5 32.7828 211.806 32.7775L211.799 32.7775H210.814C206.279 32.7721 201.749 32.7689 197.219 32.7636H196.442L195.688 32.7604L194.933 32.7636H194.157C189.629 32.7689 185.098 32.7721 180.562 32.7775H179.577L179.569 32.7775C175.877 32.7828 172.185 32.7882 168.494 32.7967C171.189 34.9539 174.732 36.8494 178.836 38.2117C183.392 39.7385 188.589 40.6467 194.157 40.7835L194.181 40.7856H194.276L194.3 40.7888H194.419L194.443 40.791H194.49L194.633 40.7942H194.657L194.705 40.7974H194.895L194.919 40.7995H195.134L195.158 40.8027Z" fill="#3A7907"/>
<path d="M195.688 10.58H194.157L194.145 10.58C184.686 10.5886 175.232 10.5971 165.776 10.5971C165.926 7.87251 166.075 5.14578 166.223 2.45324C175.534 2.44041 184.844 2.43187 194.157 2.42652H197.219C206.531 2.43187 215.843 2.44041 225.153 2.45324C225.301 5.14578 225.448 7.87251 225.6 10.5971C216.145 10.5971 206.693 10.5886 197.236 10.58L197.219 10.58H195.688Z" fill="#3A7907"/>
</svg>
